<svg width="59" height="62" viewBox="0 0 59 62" fill="none" xmlns="http://www.w3.org/2000/svg">
<g opacity="0.8">
<path fill-rule="evenodd" clip-rule="evenodd" d="M27.8061 6.02999L28.1536 5.24037L30.6093 5.20137L30.9897 5.97942L32.5655 5.95439L29.6466 0L28.9347 0.0113079L26.2303 6.05502L27.8061 6.02999ZM29.3434 2.57314L29.9723 3.88332L28.7484 3.90276L29.3434 2.57314ZM23.311 6.65138L21.1338 7.10504L19.9099 1.23119L22.0871 0.77753C23.7083 0.439733 25.2982 1.48132 25.636 3.1025C25.9738 4.72368 24.9322 6.31358 23.311 6.65138ZM22.4197 2.33443L21.7696 2.46987L22.3489 5.25016L22.999 5.11471C23.7665 4.95479 24.2625 4.1977 24.1026 3.43018C23.9443 2.6705 23.1872 2.1745 22.4197 2.33443ZM14.0464 6.82227C14.7088 8.34579 16.4724 9.04051 17.9959 8.37811C19.5194 7.71571 20.2215 5.94899 19.5591 4.42547C18.8967 2.90195 17.1194 2.19571 15.5959 2.85811C14.0724 3.52051 13.384 5.29875 14.0464 6.82227ZM18.1133 5.04531C18.4269 5.76659 18.0973 6.61875 17.3687 6.93555C16.6474 7.24915 15.7994 6.90899 15.4858 6.18771C15.169 5.45907 15.5018 4.61427 16.2231 4.30067C16.9517 3.98387 17.7965 4.31667 18.1133 5.04531ZM9.96316 5.96417C10.6376 5.49072 11.4349 5.33169 12.1928 5.46436L11.9281 7.00881C11.5826 6.94833 11.2118 7.03272 10.8779 7.26715C10.21 7.736 10.0657 8.56067 10.5345 9.22853C11.0034 9.89639 11.828 10.0408 12.4959 9.5719C12.8298 9.33748 13.0352 9.01737 13.0911 8.66535L14.6421 8.92539C14.5094 9.6832 14.0916 10.3968 13.4106 10.8749C12.0553 11.8264 10.183 11.4986 9.23154 10.1433C8.28004 8.7879 8.6078 6.91567 9.96316 5.96417ZM4.54164 14.9331C5.74683 16.0688 7.63538 16.0127 8.7711 14.8075C9.90682 13.6024 9.85625 11.708 8.65106 10.5723C7.44587 9.43654 5.54018 9.48744 4.40446 10.6926C3.26875 11.8978 3.33644 13.7974 4.54164 14.9331ZM7.56987 11.7079C8.14045 12.2456 8.17312 13.1558 7.62995 13.7322C7.09227 14.3028 6.18175 14.3241 5.61118 13.7864C5.03478 13.2433 5.00793 12.3386 5.54561 11.768C6.08878 11.1916 6.99348 11.1648 7.56987 11.7079ZM2.30745 14.3949C1.55826 14.5698 0.886959 15.0286 0.452014 15.7285C-0.422098 17.135 0.00999122 18.9859 1.4165 19.86C2.82301 20.7341 4.67394 20.302 5.54806 18.8955C5.98722 18.1889 6.09199 17.3686 5.9171 16.6194L4.38824 16.9879C4.47476 17.3337 4.41127 17.7087 4.19591 18.0552C3.76518 18.7483 2.94989 18.9386 2.25683 18.5079C1.56377 18.0772 1.37344 17.2619 1.80416 16.5688C2.01953 16.2223 2.32763 15.9993 2.66917 15.9196L2.30745 14.3949ZM39.2421 1.42737C40.0354 1.65021 40.663 2.16719 41.0396 2.83803L39.676 3.61004C39.5043 3.30421 39.2044 3.07039 38.8116 2.96005C38.026 2.73938 37.2959 3.14922 37.0753 3.93482C36.8546 4.72041 37.2644 5.45045 38.05 5.67112C38.4428 5.78146 38.8207 5.73802 39.1286 5.55862L39.9084 6.92437C39.2375 7.30099 38.4205 7.4288 37.6195 7.2038C36.0252 6.75597 35.0947 5.09859 35.5426 3.50429C35.9904 1.90999 37.6478 0.979534 39.2421 1.42737ZM41.5035 8.64861L42.1895 8.12551L44.3578 9.27891L44.3145 10.1439L45.7059 10.884L46.0305 4.26061L45.4019 3.92624L40.1121 7.90848L41.5035 8.64861ZM44.5208 6.36626L44.4376 7.81717L43.357 7.24235L44.5208 6.36626ZM47.5623 12.532L46.3551 11.519L50.2118 6.92275L53.0921 9.33963L52.2591 10.3324L50.586 8.92857L49.9587 9.67623L51.4356 10.9155L50.5768 11.939L49.0999 10.6997L47.5623 12.532ZM49.7786 14.5079L52.2018 17.3412L53.1806 16.504L51.7818 14.8684L52.6209 14.1508L53.8585 15.5979L54.8678 14.7347L53.6302 13.2876L54.3719 12.6532L55.7707 14.2888L56.7618 13.4412L54.3386 10.6079L49.7786 14.5079ZM53.3632 19.1232C53.1747 18.826 53.2611 18.4396 53.5583 18.251C53.8556 18.0625 54.2488 18.1446 54.4373 18.4419C54.6259 18.7391 54.5327 19.1298 54.2354 19.3184C53.9382 19.5069 53.5518 19.4205 53.3632 19.1232ZM55.0528 18.7998L54.3757 17.7325L58.0912 15.3755L58.7683 16.4428L55.0528 18.7998Z" fill="#333333"/>
<path d="M15.8502 31.4366H40.6877C40.9875 31.4366 41.2751 31.5557 41.4871 31.7677C41.6991 31.9797 41.8182 32.2673 41.8182 32.5671V38.4666C41.8182 42.0458 40.3963 45.4785 37.8654 48.0094C35.3345 50.5403 31.9019 51.9621 28.3227 51.9621H28.212C24.6328 51.9621 21.2001 50.5403 18.6692 48.0094C16.1383 45.4785 14.7165 42.0458 14.7165 38.4666V32.5671C14.7165 32.2673 14.8356 31.9797 15.0476 31.7677C15.2596 31.5557 15.5472 31.4366 15.847 31.4366H15.8502Z" fill="#B6A496" stroke="black" stroke-width="2" stroke-linecap="round" stroke-linejoin="round"/>
<path d="M41.8198 34.8041H46.9271C47.2734 34.8041 47.6056 34.9415 47.8506 35.1863C48.0957 35.431 48.2336 35.763 48.234 36.1094V36.5439C48.234 38.5917 47.4205 40.5556 45.9725 42.0036C44.5245 43.4516 42.5606 44.2651 40.5129 44.2651" stroke="black" stroke-width="2" stroke-linecap="round" stroke-linejoin="round"/>
<path d="M26.3471 21.2204C24.843 24.5012 23.3003 23.7861 21.7882 27.0717" stroke="black" stroke-width="2" stroke-miterlimit="10" stroke-linecap="round"/>
<path d="M31.1898 21.4978C29.6873 24.7787 28.1351 24.0635 26.6309 27.3492" stroke="black" stroke-width="2" stroke-miterlimit="10" stroke-linecap="round"/>
<path d="M36.0374 21.7752C34.5332 25.0561 32.9906 24.3409 31.4785 27.6266" stroke="black" stroke-width="2" stroke-miterlimit="10" stroke-linecap="round"/>
<path d="M47.514 53.0846C42.5574 57.8865 35.9269 60.5715 29.0258 60.5715C22.1246 60.5715 15.4942 57.8865 10.5376 53.0846H47.514Z" stroke="black" stroke-width="2" stroke-linecap="round" stroke-linejoin="round"/>
<path d="M55.2704 34.7801C55.2693 38.1951 54.5822 41.5751 53.2498 44.7195C51.9174 47.8639 49.9669 50.7085 47.514 53.0847H10.5408C8.08771 50.7087 6.13691 47.8641 4.80423 44.7197C3.47155 41.5753 2.78415 38.1952 2.78284 34.7801C2.78284 20.5341 14.5321 8.98688 29.0266 8.98688C43.5212 8.98688 55.2704 20.5341 55.2704 34.7801Z" stroke="black" stroke-width="2" stroke-linecap="round" stroke-linejoin="round"/>
</g>
</svg>
